<?xml version="1.0" encoding="utf-8"?>
<!-- Generator: Adobe Illustrator 24.3.0, SVG Export Plug-In . SVG Version: 6.00 Build 0)  -->
<svg version="1.1" id="Layer_1" xmlns="http://www.w3.org/2000/svg" xmlns:xlink="http://www.w3.org/1999/xlink" x="0px" y="0px"
	 viewBox="0 0 1000 1000" style="enable-background:new 0 0 1000 1000;" xml:space="preserve">
<style type="text/css">
	.st0{display:none;}
	.st1{display:inline;fill:#FED700;}
	.st2{fill:url(#SVGID_1_);}
	.st3{fill:none;}
	.st4{fill:url(#SVGID_2_);}
</style>
<g id="Layer_1_1_" class="st0">
	<path class="st1" d="M972.9,832.9L729.8,589.8c-11.3-11.3-28.1-13.9-41.9-7.8l-49.2-49.2c9.7-15.3,18.1-31.5,25.2-48.3
		c17.6-41.6,26.5-85.8,26.5-131.2s-8.9-89.6-26.5-131.2c-17-40.1-41.3-76.2-72.2-107.1c-30.9-30.9-67-55.2-107.1-72.2
		C442.9,25,398.7,16.1,353.2,16.1S263.6,25,222,42.6c-40.2,17-76.2,41.3-107.1,72.2s-55.2,67-72.2,107.1
		C25,263.6,16.1,307.7,16.1,353.2s8.9,89.6,26.5,131.2c17,40.1,41.3,76.2,72.2,107.1s67,55.2,107.1,72.2
		c41.6,17.6,85.8,26.5,131.2,26.5s89.6-8.9,131.2-26.5c16.9-7.1,33-15.6,48.3-25.2l49.2,49.2c-6.1,13.8-3.5,30.6,7.8,41.9
		l243.1,243.1c14.7,14.7,38.6,14.7,53.3,0l86.7-86.7C987.6,871.5,987.6,847.6,972.9,832.9z M353.2,553.2c-110.3,0-200-89.7-200-200
		s89.7-200,200-200s200,89.7,200,200S463.5,553.2,353.2,553.2z"/>
</g>
<g id="Layer_2_1_">
	<linearGradient id="SVGID_1_" gradientUnits="userSpaceOnUse" x1="500" y1="978.67" x2="500" y2="21.33">
		<stop  offset="0" style="stop-color:#6B0036"/>
		<stop  offset="1" style="stop-color:#A73635"/>
	</linearGradient>
	<path class="st2" d="M978.7,500c0,264.4-214.3,478.7-478.7,478.7S21.3,764.4,21.3,500c0-32.4,3.2-64,9.4-94.5
		c3.4-17,7.7-33.6,12.8-49.9c15.1-47.8,37.5-92.4,65.9-132.4c0.9-1.3,1.8-2.6,2.8-3.9c1.9-2.7,3.9-5.3,5.9-8
		C205.5,95.9,344,21.3,500,21.3s294.5,74.6,381.9,190.1c2,2.6,4,5.3,5.9,8c30.7,42.3,54.6,89.8,70.2,141
		c4.5,14.8,8.3,29.8,11.4,45.1C975.5,436,978.7,467.6,978.7,500z"/>
	<polygon class="st3" points="955.3,532.8 960.1,532.8 960.1,532.8 	"/>
	<linearGradient id="SVGID_2_" gradientUnits="userSpaceOnUse" x1="500.735" y1="211.39" x2="500.735" y2="788.61">
		<stop  offset="0" style="stop-color:#FED700"/>
		<stop  offset="1" style="stop-color:#B85C00"/>
	</linearGradient>
	<path class="st4" d="M958,360.3H730.5v102.9c0,119.3-22.9,203.3-68.6,252.1c-45.8,48.8-112.1,73.2-198.9,73.2
		c-55.8,0-102.5-7.9-140.1-23.8c-37.6-15.8-72.3-40.9-104.1-75.1l90.7-106.4c13.2,14.2,33.1,26.1,59.9,35.7
		c26.8,9.6,57.4,14.4,91.9,14.4c34.5,0,61.1-9,79.7-26.9c18.6-17.9,27.9-51.5,27.9-100.7V355.6H43.5c15.1-47.8,37.5-92.4,65.9-132.4
		c0.9-1.3,1.8-2.6,2.8-3.9c1.9-2.7,3.9-5.3,5.9-8h763.8c2,2.6,4,5.3,5.9,8C918.5,261.7,942.4,309.2,958,360.3z"/>
</g>
</svg>
