<svg id="Layer_1" data-name="Layer 1" xmlns="http://www.w3.org/2000/svg" viewBox="0 0 1894.66 270"><defs><style>.cls-1{fill:#a63635;}.cls-2{fill:#fff;}</style></defs><rect class="cls-1" width="960" height="270"/><path class="cls-2" d="M101.59,61.12V155.9q0,29.6-12.21,41.7T54,209.71q-14.91,0-24.94-3.94a53.91,53.91,0,0,1-18.52-12.41l16.14-17.59q3.51,3.53,10.66,5.9A51.84,51.84,0,0,0,53.69,184q9.2,0,14.17-4.44t5-16.66V61.12Z"/><path class="cls-2" d="M240.24,61.12V158q0,24-16.24,37.87T184,209.71q-23.79,0-40-13.87T127.66,158V61.12h28.77v95.82q0,13.65,7.55,20.38T184,184q12.42,0,20.08-6.72t7.65-20.38V61.12Z"/><path class="cls-2" d="M361.09,208.46H317.22q-24.83,0-35.9-9.62t-11.07-31.35V61.12H299V167.49c0,5.79,1.31,9.8,3.93,12s7.38,3.31,14.28,3.31h43.87Z"/><path class="cls-2" d="M549.2,61.12,509.68,208.46h-24l-27.11-89.39-27.11,89.39h-24L368.13,61.12h30L420.9,154l22.55-76.78q3.74-17.18,15.73-17.17,6,0,9.11,4.45a45.42,45.42,0,0,1,5.58,12.72L496.22,154l23-92.92Z"/><path class="cls-2" d="M596.38,208.46H567.62V61.12h28.76Z"/><path class="cls-2" d="M745.59,61.12V193.56a17.49,17.49,0,0,1-4.14,11.7q-4.16,4.86-9.73,4.86-14.28,0-23.38-16.56l-50.91-79.67v94.57H628.66V61.12h27.73l60.43,96.44V61.12Z"/><path class="cls-2" d="M801.46,75.4V86.16a25.72,25.72,0,0,1-4,13.76q-4,6.52-8.59,8.18V94.85q0-3.51-1.24-5.07c-.83-1-2.89-1.55-6.21-1.55s-5.69-.72-7.14-2.17-2.17-5.1-2.17-11,.93-9.73,2.8-11.59,5.82-2.79,11.89-2.79,10,.93,11.9,2.79S801.46,69.33,801.46,75.4Z"/><path class="cls-2" d="M931.21,165q0,20.9-15.32,32.8t-39.11,11.9q-18.82,0-36.42-10.35a41.76,41.76,0,0,1-14.28-15.21,44.68,44.68,0,0,1-5.59-22.45l26.08-1.25q0,11.18,9.52,17.39A37.79,37.79,0,0,0,877.2,184q25.86,0,25.86-18.21,0-14.9-17.59-17.59l-24-2.48q-18-2.69-28.56-12.83t-10.55-29.18q0-19,15.1-31.45t38.18-12.42q23.08,0,37.15,11.69t14.07,30.11l-25.66,1.24q-3.53-18-24.21-18-12.63,0-19.76,5.38T850.09,103q0,7.35,5.17,11.59a25.06,25.06,0,0,0,12.83,5.27l23.59,2.49Q931.21,127.77,931.21,165Z"/><path class="cls-1" d="M1068.33,144.78h-20.75v-43h-39v43H987.86V38.47h20.75V83.41h39V38.47h20.75Z"/><path class="cls-1" d="M1172.24,144.78h-21.65l-6-18.37h-35.68l-5.82,18.37h-21.65l34-97.35q2.23-5.07,5-7a11.55,11.55,0,0,1,6.79-1.94,10.76,10.76,0,0,1,6.5,1.8q2.46,1.78,4.4,7.16Zm-32.4-35.84-12.54-42.1-13.14,42.1Z"/><path class="cls-1" d="M1267.35,144.78h-24l-20.75-39.42h-14.93v39.42h-20.76V61.32q0-11.94,5.53-17.4t18.51-5.45h17.62q15.83,0,25.16,9.63T1263,72.52a31.13,31.13,0,0,1-5.6,18.58,29,29,0,0,1-13.81,10.83ZM1238,83.49a16,16,0,0,0,4.25-11.35q0-6.8-4.1-11t-11-4.18h-10.31q-9.26,0-9.25,9.4V88h19.56A14.16,14.16,0,0,0,1238,83.49Z"/><path class="cls-1" d="M1364.69,91.18l.15,11.49a86.57,86.57,0,0,1-2.69,18.37,30.82,30.82,0,0,1-8.21,13.58q-10.15,10.15-29.56,10.16-22.85,0-31.35-6.05t-8.51-21.87V38.47h41.35q17.93,0,28.07,10.16a33.48,33.48,0,0,1,9.71,20A192.66,192.66,0,0,1,1364.69,91.18Zm-21.57,19a156.71,156.71,0,0,0,.82-18.88,148.93,148.93,0,0,0-.82-18.59,18.19,18.19,0,0,0-3.66-9.18Q1334.09,57,1323.93,57h-18.66v58.82q0,6,4,8.21t14.41,2.24q10.36,0,15.75-6.57Q1342.29,116.27,1343.12,110.21Z"/><path class="cls-1" d="M1502.05,38.47l-28.52,106.31h-17.32l-19.56-64.5-19.55,64.5h-17.32L1371.41,38.47h21.65l16.42,67,16.28-55.39q2.68-12.39,11.34-12.39a7.49,7.49,0,0,1,6.57,3.21,32.49,32.49,0,0,1,4,9.18l16.13,55.39,16.57-67Z"/><path class="cls-1" d="M1596,144.78h-21.65l-6-18.37h-35.68l-5.83,18.37h-21.65l34-97.35c1.5-3.38,3.16-5.72,5-7a11.53,11.53,0,0,1,6.79-1.94,10.73,10.73,0,0,1,6.49,1.8c1.65,1.19,3.11,3.58,4.41,7.16Zm-32.4-35.84L1551,66.84l-13.14,42.1Z"/><path class="cls-1" d="M1691.06,144.78h-24l-20.76-39.42h-14.93v39.42h-20.75V61.32q0-11.94,5.52-17.4t18.52-5.45h17.62q15.82,0,25.15,9.63t9.33,24.42a31.13,31.13,0,0,1-5.59,18.58,29,29,0,0,1-13.81,10.83Zm-29.33-61.29A16,16,0,0,0,1666,72.14a15,15,0,0,0-4.1-11q-4.11-4.19-11-4.18h-10.3q-9.25,0-9.26,9.4V88h19.56A14.17,14.17,0,0,0,1661.73,83.49Z"/><path class="cls-1" d="M1778.26,144.78h-37.63q-17.91,0-25.16-6.2t-7.24-21.87V38.47h70V57H1729V81.92h34.48L1762,100.43h-33v14.79q0,6.27,2.83,8.65t10.3,2.39h36.14Z"/><path class="cls-1" d="M1841.18,107.2V94.76h31.55V107.2h-10.79V113a58.85,58.85,0,0,1-1.06,10.21,31,31,0,0,1-3.28,9.85,16.18,16.18,0,0,1-6.1,6.16,25,25,0,0,1-8.21,3,62.84,62.84,0,0,1-10.68.77q-15.25,0-22.93-6.28T1802,119.28a29.93,29.93,0,0,1,2.06-11.38c1.36-3.36,4-6.53,7.8-9.5q-6.69-7.74-6.69-19.12T1812,62.44Q1818.89,57,1832.2,57t20.12,6.45q6.81,6.45,6.8,20.06h-15.36q0-7.4-2.41-9.91c-1.6-1.68-4.51-2.53-8.74-2.53s-7.23,1-9,2.88-2.7,3.66-2.7,5.22a24.77,24.77,0,0,0,2.93,12.2q4.82-2.11,6.1-2.58l2.82,13a33.88,33.88,0,0,0-10.5,6.51,12.65,12.65,0,0,0-3.81,9.5q0,5.81,3.22,8.45t11.27,2.64q8,0,10.85-4.64t3-17.06Z"/><path class="cls-1" d="M1030.27,231.7h-24.18q-11.52,0-16.18-4t-4.65-14.06V163.36h45v11.9H998.6v16h22.17l-1,11.9H998.6v9.5q0,4,1.82,5.57t6.63,1.53h23.22Z"/><path class="cls-1" d="M1085.46,231.7h-20.35q-11.5,0-16.65-4.47t-5.13-14.54V163.36h13.34v49.33q0,4,1.82,5.57c1.22,1,3.42,1.53,6.62,1.53h20.35Z"/><path class="cls-1" d="M1141.13,231.7h-24.19q-11.52,0-16.17-4t-4.66-14.06V163.36h45v11.9h-31.67v16h22.17l-1,11.9h-21.21v9.5c0,2.69.6,4.55,1.82,5.57s3.42,1.53,6.62,1.53h23.23Z"/><path class="cls-1" d="M1188.73,205.21h12.39q0,13-6.53,20.06t-18.43,7q-26.21,0-26.2-30.81V195.7q0-24.27,13.44-30.42a29.69,29.69,0,0,1,12.76-2.5q11,0,17.81,6t6.86,17.33h-12.48q-1-5.67-3.74-8.55t-8.45-2.88q-6.72,0-10,4.23-2.31,3-2.69,10.17-.2,2.31-.19,6.24v6q0,11,3.07,15.07t9.84,4q6.68,0,9.21-3.69T1188.73,205.21Z"/><path class="cls-1" d="M1256.88,175.26h-18.33V231.7h-13.34V175.26H1207v-11.9h49.91Z"/><path class="cls-1" d="M1319,231.7h-15.45l-13.34-25.34h-9.6V231.7h-13.34V178q0-7.66,3.55-11.18t11.9-3.5H1294q10.18,0,16.18,6.19t6,15.69a20,20,0,0,1-3.6,11.95,18.65,18.65,0,0,1-8.88,7Zm-18.86-39.4a10.31,10.31,0,0,0,2.74-7.3,9.66,9.66,0,0,0-2.64-7.05,9.47,9.47,0,0,0-7.06-2.69h-6.62q-6,0-6,6.05v13.91h12.57A9.1,9.1,0,0,0,1300.12,192.3Z"/><path class="cls-1" d="M1343.36,231.7H1330V163.36h13.34Z"/><path class="cls-1" d="M1393.84,205.21h12.38q0,13-6.52,20.06t-18.43,7q-26.2,0-26.2-30.81V195.7q0-24.27,13.43-30.42a29.76,29.76,0,0,1,12.77-2.5q10.93,0,17.8,6t6.87,17.33h-12.48q-1.07-5.67-3.74-8.55c-1.8-1.92-4.61-2.88-8.45-2.88q-6.72,0-10,4.23-2.31,3-2.69,10.17-.19,2.31-.19,6.24v6q0,11,3.07,15.07t9.84,4c4.44,0,7.52-1.23,9.21-3.69S1393.33,210.39,1393.84,205.21Z"/><path class="cls-1" d="M1469.38,231.7h-13.92l-3.84-11.81h-22.94l-3.74,11.81H1411l21.89-62.58a10.62,10.62,0,0,1,3.21-4.51,7.42,7.42,0,0,1,4.37-1.25,6.89,6.89,0,0,1,4.17,1.15c1.06.77,2,2.3,2.84,4.61Zm-20.83-23-8.06-27.06L1432,208.66Z"/><path class="cls-1" d="M1520.92,231.7h-20.35q-11.52,0-16.65-4.47t-5.14-14.54V163.36h13.35v49.33c0,2.69.6,4.55,1.82,5.57s3.42,1.53,6.62,1.53h20.35Z"/><path class="cls-1" d="M1599.91,211.54q0,9.69-7.1,15.21t-18.14,5.52a32.89,32.89,0,0,1-16.9-4.8,19.34,19.34,0,0,1-6.62-7.05,20.67,20.67,0,0,1-2.59-10.41l12.09-.58a9.12,9.12,0,0,0,4.42,8.06,17.54,17.54,0,0,0,9.79,2.88q12,0,12-8.45,0-6.9-8.16-8.15l-11.14-1.15q-8.34-1.26-13.24-6t-4.9-13.53a18.09,18.09,0,0,1,7-14.59q7-5.76,17.71-5.76t17.23,5.43a17.32,17.32,0,0,1,6.52,14l-11.9.58q-1.63-8.35-11.23-8.35-5.85,0-9.16,2.49a7.27,7.27,0,0,0-3.31,5.91,6.59,6.59,0,0,0,2.39,5.37,11.66,11.66,0,0,0,6,2.45l10.94,1.15Q1599.91,194.26,1599.91,211.54Z"/><path class="cls-1" d="M1660.76,163.36v44.92q0,11.13-7.53,17.56t-18.58,6.43q-11,0-18.57-6.43t-7.53-17.56V163.36h13.34V207.8q0,6.33,3.5,9.45a13.41,13.41,0,0,0,9.26,3.12,13.58,13.58,0,0,0,9.31-3.12q3.55-3.12,3.55-9.45V163.36Z"/><path class="cls-1" d="M1717.82,169.26q5.91,5.91,5.9,17.33t-5.9,17.32q-5.89,5.91-16.65,5.9H1688V231.7h-13.34V163.36h26.49Q1711.91,163.36,1717.82,169.26Zm-7.44,17.33q0-11.33-9.88-11.33H1688v22.56h12.48q4.79,0,7.34-2.6T1710.38,186.59Z"/><path class="cls-1" d="M1778.1,169.26q5.89,5.91,5.9,17.33t-5.9,17.32q-5.91,5.91-16.66,5.9h-13.15V231.7H1735V163.36h26.49Q1772.19,163.36,1778.1,169.26Zm-7.44,17.33q0-11.33-9.89-11.33h-12.48v22.56h12.48q4.8,0,7.34-2.6T1770.66,186.59Z"/><path class="cls-1" d="M1837.36,231.7H1817q-11.52,0-16.66-4.47t-5.13-14.54V163.36h13.34v49.33q0,4,1.82,5.57t6.63,1.53h20.34Z"/><path class="cls-1" d="M1894.66,163.36l-20.54,40.31v28h-13.24v-28l-20.54-40.31h14.49l12.77,27.54,12.57-27.54Z"/></svg>