<?xml version="1.0" encoding="utf-8"?>
<!-- Generator: Adobe Illustrator 24.3.0, SVG Export Plug-In . SVG Version: 6.00 Build 0)  -->
<svg version="1.1" id="Layer_1" xmlns="http://www.w3.org/2000/svg" xmlns:xlink="http://www.w3.org/1999/xlink" x="0px" y="0px"
	 viewBox="0 0 1894.7 270" style="enable-background:new 0 0 1894.7 270;" xml:space="preserve">
<style type="text/css">
	.st0{fill:url(#SVGID_1_);}
	.st1{fill:#FFFFFF;}
	.st2{fill:#A63635;}
</style>
<linearGradient id="SVGID_1_" gradientUnits="userSpaceOnUse" x1="480" y1="270" x2="480" y2="-9.094947e-13">
	<stop  offset="0.5" style="stop-color:#A63635"/>
	<stop  offset="1" style="stop-color:#F05020"/>
</linearGradient>
<rect class="st0" width="960" height="270"/>
<path class="st1" d="M101.6,61.1v94.8c0,19.7-4.1,33.6-12.2,41.7c-8.1,8.1-19.9,12.1-35.4,12.1c-9.9,0-18.3-1.3-24.9-3.9
	c-7-2.8-13.3-7-18.5-12.4l16.1-17.6c2.3,2.4,5.9,4.3,10.7,5.9c5.3,1.6,10.8,2.4,16.4,2.3c6.1,0,10.9-1.5,14.2-4.4s5-8.5,5-16.7V61.1
	H101.6z"/>
<path class="st1" d="M240.2,61.1V158c0,16-5.4,28.6-16.2,37.9s-24.2,13.9-40,13.8c-15.9,0-29.2-4.6-40-13.9
	c-10.8-9.2-16.3-21.9-16.3-37.8V61.1h28.8v95.8c0,9.1,2.5,15.9,7.6,20.4s11.7,6.7,20,6.7c8.3,0,15-2.2,20.1-6.7
	c5.1-4.5,7.7-11.3,7.6-20.4V61.1H240.2z"/>
<path class="st1" d="M361.1,208.5h-43.9c-16.6,0-28.5-3.2-35.9-9.6s-11.1-16.9-11.1-31.4V61.1H299v106.4c0,5.8,1.3,9.8,3.9,12
	s7.4,3.3,14.3,3.3h43.9L361.1,208.5z"/>
<path class="st1" d="M549.2,61.1l-39.5,147.3h-24l-27.1-89.4l-27.1,89.4h-24L368.1,61.1h30l22.8,92.9l22.5-76.8
	c2.5-11.5,7.7-17.2,15.7-17.2c4,0,7,1.5,9.1,4.4c2.5,3.9,4.4,8.2,5.6,12.7l22.4,76.8l23-92.9L549.2,61.1z"/>
<path class="st1" d="M596.4,208.5h-28.8V61.1h28.8V208.5z"/>
<path class="st1" d="M745.6,61.1v132.4c0.1,4.3-1.4,8.4-4.1,11.7c-2.8,3.2-6,4.9-9.7,4.9c-9.5,0-17.3-5.5-23.4-16.6l-50.9-79.7v94.6
	h-28.8V61.1h27.7l60.4,96.4V61.1H745.6z"/>
<path class="st1" d="M801.5,75.4v10.8c0,4.9-1.4,9.6-4,13.8c-2.7,4.3-5.5,7.1-8.6,8.2V94.8c0-2.3-0.4-4-1.2-5.1
	c-0.8-1-2.9-1.6-6.2-1.6s-5.7-0.7-7.1-2.2s-2.2-5.1-2.2-11s0.9-9.7,2.8-11.6s5.8-2.8,11.9-2.8s10,0.9,11.9,2.8
	C800.6,65.3,801.5,69.3,801.5,75.4z"/>
<path class="st1" d="M931.2,165c0,13.9-5.1,24.9-15.3,32.8c-10.2,7.9-23.3,11.9-39.1,11.9c-12.5,0-24.7-3.4-36.4-10.4
	c-6-3.8-10.9-9-14.3-15.2c-3.8-6.9-5.7-14.6-5.6-22.4l26.1-1.2c0,7.5,3.2,13.2,9.5,17.4c6.3,4.1,13.6,6.3,21.1,6.2
	c17.2,0,25.9-6.1,25.9-18.2c0-9.9-5.9-15.8-17.6-17.6l-24-2.5c-12-1.8-21.5-6.1-28.6-12.8c-7-6.8-10.6-16.5-10.5-29.2
	c0-12.7,5-23.2,15.1-31.5s22.8-12.4,38.2-12.4c15.4,0,27.8,3.9,37.2,11.7s14.1,17.8,14.1,30.1l-25.7,1.2c-2.4-12-10.4-18-24.2-18
	c-8.4,0-15,1.8-19.8,5.4s-7.1,7.8-7.1,12.7c0,4.9,1.7,8.8,5.2,11.6c3.7,2.9,8.1,4.8,12.8,5.3l23.6,2.5
	C918,126,931.2,140.2,931.2,165z"/>
<path class="st2" d="M1068.3,144.8h-20.8v-43h-39v43h-20.7V38.5h20.8v44.9h39V38.5h20.8L1068.3,144.8z"/>
<path class="st2" d="M1172.2,144.8h-21.7l-6-18.4h-35.7l-5.8,18.4h-21.7l34-97.3c1.5-3.4,3.2-5.7,5-7c2-1.3,4.4-2,6.8-1.9
	c2.3-0.1,4.6,0.5,6.5,1.8c1.6,1.2,3.1,3.6,4.4,7.2L1172.2,144.8z M1139.8,108.9l-12.5-42.1l-13.1,42.1H1139.8z"/>
<path class="st2" d="M1267.3,144.8h-24l-20.8-39.4h-14.9v39.4h-20.8V61.3c0-8,1.8-13.8,5.5-17.4c3.7-3.6,9.9-5.5,18.5-5.5h17.6
	c10.6,0,18.9,3.2,25.2,9.6s9.3,14.6,9.3,24.4c0.2,6.6-1.8,13.1-5.6,18.6c-3.4,4.9-8.2,8.7-13.8,10.8L1267.3,144.8z M1238,83.5
	c2.9-3.1,4.4-7.2,4.2-11.3c0-4.5-1.4-8.2-4.1-11c-2.7-2.8-6.4-4.2-11-4.2h-10.3c-6.2,0-9.3,3.1-9.2,9.4V88h19.6
	C1231.2,88.1,1235.2,86.5,1238,83.5z"/>
<path class="st2" d="M1364.7,91.2l0.2,11.5c-0.2,6.2-1.1,12.4-2.7,18.4c-1.5,5.2-4.3,9.8-8.2,13.6c-6.8,6.8-16.6,10.2-29.6,10.2
	c-15.2,0-25.7-2-31.3-6.1c-5.7-4-8.5-11.3-8.5-21.9V38.5h41.3c12,0,21.3,3.4,28.1,10.2c5.4,5.4,8.8,12.4,9.7,20
	C1364.4,76.1,1364.8,83.6,1364.7,91.2z M1343.1,110.2c0.7-6.3,0.9-12.6,0.8-18.9c0.1-6.2-0.2-12.4-0.8-18.6
	c-0.3-3.3-1.6-6.5-3.7-9.2c-3.6-4.4-8.8-6.5-15.5-6.5h-18.7v58.8c0,4,1.3,6.7,4,8.2s7.5,2.2,14.4,2.2c6.9,0,12.2-2.2,15.8-6.6
	C1341.3,117.4,1342.6,114.2,1343.1,110.2L1343.1,110.2z"/>
<path class="st2" d="M1502.1,38.5l-28.5,106.3h-17.3l-19.6-64.5l-19.6,64.5h-17.3l-28.4-106.3h21.7l16.4,67l16.3-55.4
	c1.8-8.3,5.6-12.4,11.3-12.4c2.6-0.1,5.1,1.1,6.6,3.2c1.8,2.8,3.1,5.9,4,9.2l16.1,55.4l16.6-67H1502.1z"/>
<path class="st2" d="M1596,144.8h-21.7l-6-18.4h-35.7l-5.8,18.4h-21.7l34-97.3c1.5-3.4,3.2-5.7,5-7c2-1.3,4.4-2,6.8-1.9
	c2.3-0.1,4.6,0.5,6.5,1.8c1.7,1.2,3.1,3.6,4.4,7.2L1596,144.8z M1563.6,108.9L1551,66.8l-13.1,42.1L1563.6,108.9z"/>
<path class="st2" d="M1691.1,144.8h-24l-20.8-39.4h-14.9v39.4h-20.8V61.3c0-8,1.8-13.8,5.5-17.4c3.7-3.6,9.9-5.5,18.5-5.5h17.6
	c10.5,0,18.9,3.2,25.2,9.6c6.2,6.4,9.3,14.6,9.3,24.4c0.2,6.6-1.8,13.1-5.6,18.6c-3.4,4.9-8.2,8.7-13.8,10.8L1691.1,144.8z
	 M1661.7,83.5c2.9-3.1,4.4-7.2,4.3-11.3c0.2-4.1-1.3-8-4.1-11c-2.7-2.8-6.4-4.2-11-4.2h-10.3c-6.2,0-9.3,3.1-9.3,9.4V88h19.6
	C1655,88.1,1658.9,86.5,1661.7,83.5L1661.7,83.5z"/>
<path class="st2" d="M1778.3,144.8h-37.6c-11.9,0-20.3-2.1-25.2-6.2c-4.8-4.1-7.2-11.4-7.2-21.9V38.5h70V57H1729v24.9h34.5
	l-1.5,18.5h-33v14.8c0,4.2,0.9,7.1,2.8,8.7c1.9,1.6,5.3,2.4,10.3,2.4h36.1L1778.3,144.8z"/>
<path class="st2" d="M1841.2,107.2V94.8h31.6v12.4h-10.8v5.8c-0.1,3.4-0.4,6.8-1.1,10.2c-0.5,3.4-1.6,6.8-3.3,9.8
	c-1.4,2.6-3.5,4.7-6.1,6.2c-2.5,1.5-5.3,2.5-8.2,3c-3.5,0.6-7.1,0.8-10.7,0.8c-10.2,0-17.8-2.1-22.9-6.3c-5.1-4.2-7.7-10-7.7-17.4
	c-0.1-3.9,0.6-7.8,2.1-11.4c1.4-3.4,4-6.5,7.8-9.5c-4.5-5.2-6.7-11.5-6.7-19.1c0-7.6,2.3-13.2,6.8-16.8c4.6-3.6,11.3-5.4,20.2-5.4
	s15.6,2.1,20.1,6.5s6.8,11,6.8,20.1h-15.4c0-4.9-0.8-8.2-2.4-9.9c-1.6-1.7-4.5-2.5-8.7-2.5s-7.2,1-9,2.9s-2.7,3.7-2.7,5.2
	c-0.1,4.3,0.9,8.5,2.9,12.2c3.2-1.4,5.2-2.3,6.1-2.6l2.8,13c-3.9,1.5-7.4,3.7-10.5,6.5c-2.6,2.5-3.9,5.9-3.8,9.5
	c0,3.9,1.1,6.7,3.2,8.4c2.1,1.8,5.9,2.6,11.3,2.6c5.3,0,9-1.5,10.8-4.6c1.9-3.1,2.9-8.8,3-17.1L1841.2,107.2z"/>
<path class="st2" d="M1030.3,231.7h-24.2c-7.7,0-13.1-1.3-16.2-4c-3.1-2.7-4.7-7.4-4.7-14.1v-50.3h45v11.9h-31.7v16h22.2l-1,11.9
	h-21.2v9.5c0,2.7,0.6,4.5,1.8,5.6c1.2,1,3.4,1.6,6.6,1.5h23.2V231.7z"/>
<path class="st2" d="M1085.5,231.7h-20.3c-7.7,0-13.2-1.5-16.7-4.5c-3.4-3-5.1-7.8-5.1-14.5v-49.3h13.3v49.3c0,2.7,0.6,4.5,1.8,5.6
	c1.2,1,3.4,1.5,6.6,1.5h20.3L1085.5,231.7z"/>
<path class="st2" d="M1141.1,231.7h-24.2c-7.7,0-13.1-1.3-16.2-4c-3.1-2.7-4.7-7.4-4.7-14.1v-50.3h45v11.9h-31.7v16h22.2l-1,11.9
	h-21.2v9.5c0,2.7,0.6,4.6,1.8,5.6s3.4,1.5,6.6,1.5h23.2L1141.1,231.7z"/>
<path class="st2" d="M1188.7,205.2h12.4c0,8.7-2.2,15.4-6.5,20.1c-4.4,4.7-10.5,7-18.4,7c-17.5,0-26.2-10.3-26.2-30.8v-5.8
	c0-16.2,4.5-26.3,13.4-30.4c4-1.8,8.4-2.6,12.8-2.5c7.3,0,13.3,2,17.8,6c4.5,4,6.8,9.8,6.9,17.3h-12.5c-0.7-3.8-1.9-6.6-3.7-8.6
	s-4.6-2.9-8.4-2.9c-4.5,0-7.8,1.4-10,4.2c-1.5,2-2.4,5.4-2.7,10.2c-0.1,1.5-0.2,3.6-0.2,6.2v6c0,7.3,1,12.4,3.1,15.1s5.3,4,9.8,4
	c4.5,0,7.5-1.2,9.2-3.7C1187.1,214.2,1188.2,210.4,1188.7,205.2z"/>
<path class="st2" d="M1256.9,175.3h-18.3v56.4h-13.3v-56.4H1207v-11.9h49.9L1256.9,175.3z"/>
<path class="st2" d="M1319,231.7h-15.4l-13.3-25.3h-9.6v25.3h-13.3V178c0-5.1,1.2-8.8,3.6-11.2s6.3-3.5,11.9-3.5h11.3
	c6.8,0,12.2,2.1,16.2,6.2s6,9.4,6,15.7c0.1,4.3-1.2,8.5-3.6,11.9c-2.2,3.2-5.3,5.6-8.9,7L1319,231.7z M1300.1,192.3
	c1.8-2,2.8-4.6,2.7-7.3c0.1-2.6-0.8-5.2-2.6-7.1c-1.9-1.8-4.4-2.8-7.1-2.7h-6.6c-4,0-6,2-6,6.1v13.9h12.6
	C1295.8,195.3,1298.3,194.2,1300.1,192.3L1300.1,192.3z"/>
<path class="st2" d="M1343.4,231.7H1330v-68.3h13.3L1343.4,231.7z"/>
<path class="st2" d="M1393.8,205.2h12.4c0,8.7-2.2,15.4-6.5,20.1c-4.3,4.7-10.5,7-18.4,7c-17.5,0-26.2-10.3-26.2-30.8v-5.8
	c0-16.2,4.5-26.3,13.4-30.4c4-1.8,8.4-2.6,12.8-2.5c7.3,0,13.2,2,17.8,6c4.6,4,6.9,9.8,6.9,17.3h-12.5c-0.7-3.8-2-6.6-3.7-8.6
	c-1.8-1.9-4.6-2.9-8.4-2.9c-4.5,0-7.8,1.4-10,4.2c-1.5,2-2.4,5.4-2.7,10.2c-0.1,1.5-0.2,3.6-0.2,6.2v6c0,7.3,1,12.4,3.1,15.1
	s5.3,4,9.8,4c4.4,0,7.5-1.2,9.2-3.7S1393.3,210.4,1393.8,205.2z"/>
<path class="st2" d="M1469.4,231.7h-13.9l-3.8-11.8h-22.9l-3.7,11.8H1411l21.9-62.6c0.7-1.8,1.8-3.3,3.2-4.5
	c1.3-0.9,2.8-1.3,4.4-1.2c1.5-0.1,2.9,0.3,4.2,1.1c1.1,0.8,2,2.3,2.8,4.6L1469.4,231.7z M1448.6,208.7l-8.1-27.1l-8.5,27
	L1448.6,208.7z"/>
<path class="st2" d="M1520.9,231.7h-20.3c-7.7,0-13.2-1.5-16.7-4.5c-3.4-3-5.1-7.8-5.1-14.5v-49.3h13.3v49.3c0,2.7,0.6,4.6,1.8,5.6
	s3.4,1.5,6.6,1.5h20.3L1520.9,231.7z"/>
<path class="st2" d="M1599.9,211.5c0,6.5-2.4,11.5-7.1,15.2s-10.8,5.5-18.1,5.5c-6,0-11.8-1.7-16.9-4.8c-2.8-1.8-5-4.2-6.6-7.1
	c-1.8-3.2-2.7-6.8-2.6-10.4l12.1-0.6c-0.1,3.3,1.6,6.4,4.4,8.1c2.9,1.9,6.3,2.9,9.8,2.9c8,0,12-2.8,12-8.4c0-4.6-2.7-7.3-8.2-8.1
	l-11.1-1.1c-5.6-0.8-10-2.8-13.2-6s-4.9-7.7-4.9-13.5c-0.1-5.7,2.5-11.1,7-14.6c4.7-3.8,10.6-5.8,17.7-5.8c7.1,0,12.9,1.8,17.2,5.4
	c4.2,3.4,6.7,8.6,6.5,14l-11.9,0.6c-1.1-5.6-4.8-8.4-11.2-8.4c-3.9,0-7,0.8-9.2,2.5c-2,1.3-3.2,3.5-3.3,5.9
	c-0.1,2.1,0.8,4.1,2.4,5.4c1.7,1.4,3.8,2.2,6,2.4l10.9,1.1C1593.8,193.4,1599.9,200,1599.9,211.5z"/>
<path class="st2" d="M1660.8,163.4v44.9c0,7.4-2.5,13.3-7.5,17.6c-5,4.3-11.2,6.4-18.6,6.4c-7.3,0-13.5-2.1-18.6-6.4
	c-5-4.3-7.6-10.1-7.5-17.6v-44.9h13.3v44.4c0,4.2,1.2,7.4,3.5,9.4c2.6,2.2,5.9,3.3,9.3,3.1c3.4,0.2,6.7-1,9.3-3.1
	c2.4-2.1,3.6-5.2,3.6-9.4v-44.4H1660.8z"/>
<path class="st2" d="M1717.8,169.3c3.9,3.9,5.9,9.7,5.9,17.3c0,7.6-2,13.4-5.9,17.3c-3.9,3.9-9.5,5.9-16.7,5.9H1688v21.9h-13.3
	v-68.3h26.5C1708.3,163.4,1713.9,165.3,1717.8,169.3z M1710.4,186.6c0-7.6-3.3-11.3-9.9-11.3H1688v22.6h12.5c3.2,0,5.6-0.9,7.3-2.6
	S1710.4,190.6,1710.4,186.6z"/>
<path class="st2" d="M1778.1,169.3c3.9,3.9,5.9,9.7,5.9,17.3s-2,13.4-5.9,17.3c-3.9,3.9-9.5,5.9-16.7,5.9h-13.2v21.9H1735v-68.3
	h26.5C1768.6,163.4,1774.2,165.3,1778.1,169.3z M1770.7,186.6c0-7.6-3.3-11.3-9.9-11.3h-12.5v22.6h12.5c3.2,0,5.6-0.9,7.3-2.6
	C1769.8,193.5,1770.7,190.6,1770.7,186.6z"/>
<path class="st2" d="M1837.4,231.7H1817c-7.7,0-13.2-1.5-16.7-4.5c-3.4-3-5.1-7.8-5.1-14.5v-49.3h13.3v49.3c0,2.7,0.6,4.5,1.8,5.6
	s3.4,1.6,6.6,1.5h20.3L1837.4,231.7z"/>
<path class="st2" d="M1894.7,163.4l-20.5,40.3v28h-13.2v-28l-20.5-40.3h14.5l12.8,27.5l12.6-27.5L1894.7,163.4z"/>
</svg>
