<?xml version="1.0" encoding="utf-8"?>
<!-- Generator: Adobe Illustrator 24.3.0, SVG Export Plug-In . SVG Version: 6.00 Build 0)  -->
<svg version="1.1" id="Layer_1" xmlns="http://www.w3.org/2000/svg" xmlns:xlink="http://www.w3.org/1999/xlink" x="0px" y="0px"
	 viewBox="0 0 1920 1080" style="enable-background:new 0 0 1920 1080;" xml:space="preserve">
<style type="text/css">
	.st0{fill:#A63635;}
	.st1{fill:#FFFFFF;}
</style>
<rect class="st0" width="1920" height="554.7"/>
<rect y="554.7" class="st1" width="1920" height="525.3"/>
<g>
	<path class="st1" d="M223.5,353.2c0,58.2-33.1,89.1-92.4,89.1c-42.4,0-69.4-28.4-69.4-28.4l21.6-56.4c0,0,21.2,20.1,38.5,20.1
		c19.4,0,34.1-11.9,34.1-41.7V140.4h67.6V353.2L223.5,353.2z"/>
	<path class="st1" d="M490.9,331.6c0,73.3-40.3,110.7-115.7,110.7s-115.7-37.4-115.7-110.7V140.4H327v171.4c0,49.6,15.1,64,48.2,64
		s48.2-14.4,48.2-64V140.4H491L490.9,331.6L490.9,331.6z"/>
	<path class="st1" d="M597.9,377.6H700v59.3H530.4V140.4H598L597.9,377.6L597.9,377.6z"/>
	<path class="st1" d="M913.5,270.5L866,436.9h-75.1l-84.5-296.5h75.1l50.7,203.4h1.8l54-203.4h51l53.9,203.4h1.8l50.7-203.4h74.8
		l-84.5,296.5h-74.8L913.5,270.5z"/>
	<path class="st1" d="M1203.8,436.9h-67.6V140.4h67.6V436.9z"/>
	<path class="st1" d="M1314.5,436.9H1247V140.4h67.6l117.9,184h0.7v-184h67.6v296.5h-67.6l-117.9-184h-0.7L1314.5,436.9
		L1314.5,436.9z"/>
	<path class="st1" d="M1618.5,175.1c-1.1,38.1-28.9,69.3-54.6,90.8l-16.9-13.3c0,0,19.8-18.7,24.8-46c-15.8-4-28-16.9-28-33.8
		c0-22.7,19.6-40.7,42.6-37.3C1605.6,138.3,1619.1,155.6,1618.5,175.1z"/>
	<path class="st1" d="M1849.6,163.1l-27.3,53.9c0,0-29.5-20.5-60-20.5c-23,0-35.2,10.4-35.2,26.6c0,16.5,28,28.4,61.8,42.8
		c33.1,14,69.4,42,69.4,80.9c0,70.8-53.9,95.6-111.8,95.6c-69.4,0-111.4-39.2-111.4-39.2l33.8-56.8c0,0,39.5,33.4,72.6,33.4
		c14.7,0,42.8-1.4,42.8-29.1c0-21.6-31.6-31.3-66.8-48.9c-35.6-17.6-56.4-45.3-56.4-76.2c0-55.3,48.9-90.6,96.7-90.6
		C1811.5,135,1849.6,163.1,1849.6,163.1z"/>
</g>
<g>
	<path class="st0" d="M117.4,823.1h-47V616.8h47V699h66.5v-82.2h47V823h-47v-82.8h-66.5C117.4,740.3,117.4,823.1,117.4,823.1z"/>
	<path class="st0" d="M453.2,823.1h-50.5l-15.2-41.2H309l-15.2,41.2h-50.5l83.2-206.2H370L453.2,823.1z M348.4,680.6h-0.5l-23,60
		h46.5L348.4,680.6z"/>
	<path class="st0" d="M539.2,616.8c38.2,0,67.2,20.8,67.2,61.2c0,31-17,51.8-42.2,59.8l71,85.2h-59.8l-63-81.5V823h-47V616.8H539.2z
		 M517.9,708.3c17.8,0,39-1.2,39-27s-21.2-27-39-27h-5.5v54H517.9z"/>
	<path class="st0" d="M708.4,616.8c56.5,0,104,43,104,103c0,60.2-47.2,103.2-104,103.2h-59.8V616.8H708.4z M702.9,781.1
		c34.8,0,58.5-26.5,58.8-61c0-34.5-23.8-61.2-58.8-61.2h-7.2v122.2H702.9z"/>
	<path class="st0" d="M941.4,707.3l-33,115.8h-52.2l-58.8-206.2h52.2l35.2,141.5h1.2l37.5-141.5H959l37.5,141.5h1.2l35.2-141.5h52
		l-58.8,206.2h-52L941.4,707.3z"/>
	<path class="st0" d="M1265.9,823.1h-50.5l-15.2-41.2h-78.5l-15.2,41.2H1056l83.2-206.2h43.5L1265.9,823.1z M1161.2,680.6h-0.5
		l-23,60h46.5L1161.2,680.6z"/>
	<path class="st0" d="M1351.9,616.8c38.2,0,67.2,20.8,67.2,61.2c0,31-17,51.8-42.2,59.8l71,85.2h-59.8l-63-81.5V823h-47V616.8
		H1351.9z M1330.7,708.3c17.8,0,39-1.2,39-27s-21.2-27-39-27h-5.5v54H1330.7z"/>
	<path class="st0" d="M1579.4,658.1h-71v41h68v41.2h-68v41.5h71V823h-118V616.8h118V658.1z"/>
</g>
<g>
	<path class="st0" d="M1678.4,729.6c-9.8-12.2-16.9-24-16.9-37.3c0-26.1,18.7-43.8,53.6-43.8c33.6,0,49.9,22.8,49.9,43.8
		c0,25.3-33.2,41.4-33.2,41.4l22.4,23.2c0,0,7.3-3.3,24.7-21.2l23.6,23.2c0,0-11.4,13-23.8,23l36.3,37.7h-48.3l-16.7-17.3
		c-14.7,10.4-28.1,20.4-54,20.4c-24.8,0-58.5-10-58.5-47.3C1637.4,754.4,1658.6,740,1678.4,729.6z M1698.3,750.5
		c0,0-17.5,6.3-17.5,21.8c0,9.8,10,14.1,18.9,14.1c13.8,0,25.3-9.6,25.3-9.6L1698.3,750.5z M1700.4,692.3c0,9.8,12.2,20.6,12.2,20.6
		c8.6-4.7,18.7-11.6,18.7-20.6s-3.9-16.7-16.3-16.7C1704.7,675.6,1700.4,683.3,1700.4,692.3z"/>
</g>
<g>
	<path class="st0" d="M150.1,885h-47.5v27.4h45.5V940h-45.5v27.8h47.5v27.6H71.2v-138h78.9V885z"/>
	<path class="st0" d="M202.5,967.8H250v27.6h-79v-138h31.4L202.5,967.8L202.5,967.8z"/>
	<path class="st0" d="M347.3,885h-47.5v27.4h45.5V940h-45.5v27.8h47.5v27.6h-78.9v-138h78.9V885z"/>
	<path class="st0" d="M468.7,958.4l13.4,26.8c0,0-15.4,12.7-45.3,12.7c-39,0-74.8-31.8-74.8-71.2c0-39.6,35.6-71.7,74.8-71.7
		c29.9,0,45.3,12.7,45.3,12.7l-13.4,26.8c0,0-11-8.5-27.1-8.5c-31.6,0-45.5,22.1-45.5,40.5c0,18.6,13.9,40.6,45.5,40.6
		C457.7,967,468.7,958.4,468.7,958.4z"/>
	<path class="st0" d="M488.3,857.4h97V885h-32.8v110.4h-31.4V885h-32.8V857.4z"/>
	<path class="st0" d="M648.8,857.4c25.6,0,45,13.9,45,41c0,20.7-11.4,34.6-28.3,40l47.5,57h-40l-42.1-54.5v54.5h-31.4v-138H648.8z
		 M634.6,918.6c11.9,0,26.1-0.8,26.1-18.1s-14.2-18.1-26.1-18.1h-3.7v36.1L634.6,918.6L634.6,918.6z"/>
	<path class="st0" d="M753.5,995.4h-31.4v-138h31.4V995.4z"/>
	<path class="st0" d="M871.6,958.4l13.4,26.8c0,0-15.4,12.7-45.3,12.7c-39,0-74.8-31.8-74.8-71.2c0-39.6,35.6-71.7,74.8-71.7
		c29.9,0,45.3,12.7,45.3,12.7l-13.4,26.8c0,0-11-8.5-27.1-8.5c-31.6,0-45.5,22.1-45.5,40.5c0,18.6,13.9,40.6,45.5,40.6
		C860.5,967,871.6,958.4,871.6,958.4z"/>
	<path class="st0" d="M1025.6,995.4h-33.8l-10.2-27.6h-52.5l-10.2,27.6h-33.8l55.7-138h29.1L1025.6,995.4z M955.5,900.1h-0.3
		l-15.4,40.1h31.1L955.5,900.1z"/>
	<path class="st0" d="M1065.2,967.8h47.5v27.6h-78.9v-138h31.4V967.8L1065.2,967.8z"/>
	<path class="st0" d="M1269.9,868l-12.7,25.1c0,0-13.7-9.5-27.9-9.5c-10.7,0-16.4,4.8-16.4,12.4c0,7.7,13,13.2,28.8,19.9
		c15.4,6.5,32.3,19.6,32.3,37.6c0,32.9-25.1,44.5-52,44.5c-32.3,0-51.8-18.2-51.8-18.2l15.7-26.4c0,0,18.4,15.5,33.8,15.5
		c6.9,0,19.9-0.7,19.9-13.5c0-10-14.7-14.5-31.1-22.7c-16.6-8.2-26.3-21.1-26.3-35.5c0-25.8,22.7-42.1,45-42.1
		C1252.2,854.9,1269.9,868,1269.9,868z"/>
	<path class="st0" d="M1397.5,946.4c0,34.1-18.7,51.5-53.8,51.5s-53.8-17.4-53.8-51.5v-89h31.4v79.8c0,23.1,7,29.8,22.4,29.8
		s22.4-6.7,22.4-29.8v-79.8h31.4V946.4z"/>
	<path class="st0" d="M1469.1,857.4c26.9,0,47.2,13.9,47.2,42.5c0,28.4-20.2,44.3-47.2,44.3h-18.9v51.2h-31.4v-138H1469.1z
		 M1459.1,919.1c12.4,0,24.1-4.2,24.1-18.2c0-14.2-11.7-18.4-24.1-18.4h-8.9v36.6L1459.1,919.1L1459.1,919.1z"/>
	<path class="st0" d="M1583.3,857.4c26.9,0,47.2,13.9,47.2,42.5c0,28.4-20.2,44.3-47.2,44.3h-18.9v51.2H1533v-138H1583.3z
		 M1573.3,919.1c12.4,0,24.1-4.2,24.1-18.2c0-14.2-11.7-18.4-24.1-18.4h-8.9v36.6L1573.3,919.1L1573.3,919.1z"/>
	<path class="st0" d="M1678.7,967.8h47.5v27.6h-78.9v-138h31.4V967.8L1678.7,967.8z"/>
	<path class="st0" d="M1754.2,857.4l28.8,44.2l28.8-44.2h37.8l-50.8,76.1v61.9h-31.4v-61.9l-50.8-76.1H1754.2L1754.2,857.4z"/>
</g>
</svg>
