<?xml version="1.0" encoding="utf-8"?>
<!-- Generator: Adobe Illustrator 24.3.0, SVG Export Plug-In . SVG Version: 6.00 Build 0)  -->
<svg version="1.1" id="Layer_1" xmlns="http://www.w3.org/2000/svg" xmlns:xlink="http://www.w3.org/1999/xlink" x="0px" y="0px"
	 viewBox="0 0 1000 1000" style="enable-background:new 0 0 1000 1000;" xml:space="preserve">
<style type="text/css">
	.st0{display:none;}
	.st1{display:inline;fill:#FED700;}
	.st2{fill:#FED700;}
</style>
<g id="Layer_1_1_" class="st0">
	<path class="st1" d="M972.9,832.9L729.8,589.8c-11.3-11.3-28.1-13.9-41.9-7.8l-49.2-49.2c9.7-15.3,18.1-31.5,25.2-48.3
		c17.6-41.6,26.5-85.8,26.5-131.2s-8.9-89.6-26.5-131.2c-17-40.1-41.3-76.2-72.2-107.1c-30.9-30.9-67-55.2-107.1-72.2
		C442.9,25,398.7,16.1,353.2,16.1S263.6,25,222,42.6c-40.2,17-76.2,41.3-107.1,72.2s-55.2,67-72.2,107.1
		C25,263.6,16.1,307.7,16.1,353.2s8.9,89.6,26.5,131.2c17,40.1,41.3,76.2,72.2,107.1s67,55.2,107.1,72.2
		c41.6,17.6,85.8,26.5,131.2,26.5s89.6-8.9,131.2-26.5c16.9-7.1,33-15.6,48.3-25.2l49.2,49.2c-6.1,13.8-3.5,30.6,7.8,41.9
		l243.1,243.1c14.7,14.7,38.6,14.7,53.3,0l86.7-86.7C987.6,871.5,987.6,847.6,972.9,832.9z M353.2,553.2c-110.3,0-200-89.7-200-200
		s89.7-200,200-200s200,89.7,200,200S463.5,553.2,353.2,553.2z"/>
</g>
<polygon class="st2" points="907,215.6 93,215.6 500,551.5 "/>
<g>
	<polygon class="st2" points="116.7,784.4 883.3,784.4 619.5,520.6 500,621.1 380.5,520.6 	"/>
	<polygon class="st2" points="954.6,784.4 969,784.4 969,226.6 658.2,488 	"/>
	<polygon class="st2" points="341.8,488 31,226.6 31,784.4 45.4,784.4 	"/>
</g>
</svg>
