<?xml version="1.0" encoding="utf-8"?>
<!-- Generator: Adobe Illustrator 24.3.0, SVG Export Plug-In . SVG Version: 6.00 Build 0)  -->
<svg version="1.1" id="Layer_1" xmlns="http://www.w3.org/2000/svg" xmlns:xlink="http://www.w3.org/1999/xlink" x="0px" y="0px"
	 viewBox="0 0 1000 1000" style="enable-background:new 0 0 1000 1000;" xml:space="preserve">
<style type="text/css">
	.st0{fill:#FED700;}
</style>
<path class="st0" d="M972.88,832.89L729.75,589.77c-11.34-11.34-28.1-13.94-41.94-7.81l-49.21-49.21
	c9.65-15.33,18.08-31.45,25.21-48.29c17.6-41.61,26.52-85.77,26.52-131.25s-8.92-89.64-26.52-131.25
	c-16.98-40.15-41.28-76.2-72.22-107.14c-30.94-30.94-66.99-55.24-107.14-72.22C442.85,25,398.69,16.08,353.21,16.08
	S263.57,25,221.96,42.6c-40.15,16.98-76.2,41.28-107.14,72.22c-30.94,30.94-55.24,66.99-72.22,107.14
	C25,263.57,16.08,307.73,16.08,353.21S25,442.85,42.6,484.46c16.98,40.15,41.28,76.2,72.22,107.14
	c30.94,30.94,66.99,55.24,107.14,72.22c41.61,17.6,85.77,26.52,131.25,26.52s89.64-8.92,131.25-26.52
	c16.85-7.13,32.97-15.56,48.29-25.21l49.21,49.21c-6.13,13.83-3.53,30.6,7.81,41.94l243.12,243.12c14.72,14.72,38.59,14.72,53.32,0
	l86.67-86.67C987.6,871.49,987.6,847.61,972.88,832.89z M353.21,553.17c-110.26,0-199.96-89.7-199.96-199.96
	s89.7-199.96,199.96-199.96s199.96,89.7,199.96,199.96S463.47,553.17,353.21,553.17z"/>
</svg>
