<?xml version="1.0" encoding="utf-8"?>
<!-- Generator: Adobe Illustrator 24.3.0, SVG Export Plug-In . SVG Version: 6.00 Build 0)  -->
<svg version="1.1" id="Layer_1" xmlns="http://www.w3.org/2000/svg" xmlns:xlink="http://www.w3.org/1999/xlink" x="0px" y="0px"
	 viewBox="0 0 1000 1000" style="enable-background:new 0 0 1000 1000;" xml:space="preserve">
<style type="text/css">
	.st0{fill:#FFFFFF;}
</style>
<path class="st0" d="M960.4,563.4L502,256.3c-0.4-0.3-1-0.2-1.3,0.2l0,0c-0.3,0.4-0.9,0.5-1.3,0.2c-0.1-0.1-0.2-0.1-0.2-0.2l0,0
	c-0.3-0.4-0.8-0.5-1.3-0.2L39.7,563.4c-0.4,0.3-0.5,0.8-0.2,1.3l119.8,178.8c0.3,0.4,0.8,0.5,1.3,0.2l339-227.1c0.3-0.2,0.7-0.2,1,0
	l339,227.2c0.4,0.3,1,0.2,1.3-0.2l119.8-178.8C960.9,564.3,960.8,563.7,960.4,563.4z"/>
</svg>
